<svg xmlns="http://www.w3.org/2000/svg" viewBox="0 0 800 600" width="800" height="600">
  <defs>
    <linearGradient id="bg" x1="0" y1="0" x2="0" y2="1">
      <stop offset="0%" stop-color="#f8f4ec"/>
      <stop offset="100%" stop-color="#f0ebe0"/>
    </linearGradient>
  </defs>

  <!-- Background -->
  <rect width="800" height="600" fill="url(#bg)"/>

  <!-- Header -->
  <rect width="800" height="72" fill="#1a3d2f"/>
  <text x="36" y="30" font-family="system-ui,sans-serif" font-weight="300" font-size="10" fill="#e8dcc8" opacity="0.6" letter-spacing="4">ICON LIBRARY</text>
  <text x="36" y="56" font-family="Georgia,serif" font-weight="700" font-size="26" fill="#e8dcc8">Duotone Pack</text>
  <text x="700" y="38" text-anchor="middle" font-family="system-ui,sans-serif" font-size="9" fill="#c8732e" letter-spacing="2">240 ICONS</text>
  <text x="700" y="56" text-anchor="middle" font-family="system-ui,sans-serif" font-size="9" fill="#e8dcc8" opacity="0.5" letter-spacing="2">20 CATEGORIES</text>

  <!-- ── Icon grid: 6 columns × 4 rows, each icon in an 80×80 cell ── -->
  <!-- Cell starts at x=60, y=100 with 110px col spacing, 110px row spacing -->

  <!-- Row 1 -->
  <!-- 1: Home icon -->
  <g transform="translate(60,100)">
    <rect width="80" height="80" rx="12" fill="#fff"/>
    <!-- House shape: roof (triangle-ish) + body -->
    <polygon points="40,18 62,38 62,62 18,62 18,38" fill="#1a3d2f" opacity="0.15"/>
    <polygon points="40,18 62,38 18,38" fill="#1a3d2f"/>
    <rect x="24" y="38" width="32" height="24" fill="#1a3d2f" opacity="0.8"/>
    <rect x="33" y="48" width="14" height="14" rx="2" fill="#c8732e"/>
    <rect x="28" y="14" width="8" height="14" fill="#c8732e" opacity="0.7"/>
  </g>

  <!-- 2: User / person -->
  <g transform="translate(170,100)">
    <rect width="80" height="80" rx="12" fill="#fff"/>
    <circle cx="40" cy="28" r="13" fill="#1a3d2f"/>
    <circle cx="40" cy="28" r="8" fill="#c8732e" opacity="0.6"/>
    <path d="M 16,68 Q 16,46 40,46 Q 64,46 64,68 Z" fill="#1a3d2f" opacity="0.85"/>
    <path d="M 22,68 Q 22,52 40,52 Q 58,52 58,68 Z" fill="#c8732e" opacity="0.3"/>
  </g>

  <!-- 3: Heart -->
  <g transform="translate(280,100)">
    <rect width="80" height="80" rx="12" fill="#fff"/>
    <path d="M 40,60 Q 14,44 14,30 Q 14,18 26,18 Q 33,18 40,26 Q 47,18 54,18 Q 66,18 66,30 Q 66,44 40,60 Z" fill="#1a3d2f"/>
    <path d="M 40,54 Q 20,42 20,30 Q 20,24 26,24 Q 33,24 40,32" fill="#c8732e" opacity="0.55"/>
  </g>

  <!-- 4: Star -->
  <g transform="translate(390,100)">
    <rect width="80" height="80" rx="12" fill="#fff"/>
    <polygon points="40,14 46,32 66,32 50,44 56,62 40,50 24,62 30,44 14,32 34,32" fill="#1a3d2f"/>
    <polygon points="40,14 46,32 52,32 40,24 28,32 34,32" fill="#c8732e" opacity="0.7"/>
  </g>

  <!-- 5: Bell -->
  <g transform="translate(500,100)">
    <rect width="80" height="80" rx="12" fill="#fff"/>
    <!-- Bell body -->
    <path d="M 40,16 Q 60,16 62,36 L 64,58 L 16,58 L 18,36 Q 20,16 40,16 Z" fill="#1a3d2f"/>
    <path d="M 40,16 Q 54,16 56,36 L 58,52 L 22,52" fill="#c8732e" opacity="0.25"/>
    <!-- Bell top -->
    <rect x="34" y="12" width="12" height="8" rx="4" fill="#1a3d2f" opacity="0.7"/>
    <!-- Bell bottom clapper -->
    <rect x="30" y="58" width="20" height="6" rx="3" fill="#1a3d2f" opacity="0.5"/>
    <circle cx="40" cy="66" r="5" fill="#c8732e"/>
  </g>

  <!-- 6: Camera -->
  <g transform="translate(610,100)">
    <rect width="80" height="80" rx="12" fill="#fff"/>
    <rect x="12" y="26" width="56" height="38" rx="6" fill="#1a3d2f"/>
    <circle cx="40" cy="45" r="12" fill="#1a3d2f" opacity="0.0" stroke="#fff" stroke-width="3"/>
    <circle cx="40" cy="45" r="12" fill="#c8732e" opacity="0.4"/>
    <circle cx="40" cy="45" r="7" fill="#fff" opacity="0.2"/>
    <rect x="28" y="18" width="24" height="12" rx="4" fill="#1a3d2f" opacity="0.7"/>
    <circle cx="60" cy="34" r="4" fill="#c8732e" opacity="0.8"/>
  </g>

  <!-- Row 2 -->
  <!-- 7: Search -->
  <g transform="translate(60,210)">
    <rect width="80" height="80" rx="12" fill="#fff"/>
    <circle cx="34" cy="34" r="16" fill="none" stroke="#1a3d2f" stroke-width="6"/>
    <circle cx="34" cy="34" r="10" fill="#c8732e" opacity="0.2"/>
    <line x1="46" y1="46" x2="62" y2="62" stroke="#1a3d2f" stroke-width="6" stroke-linecap="round"/>
  </g>

  <!-- 8: Bookmark -->
  <g transform="translate(170,210)">
    <rect width="80" height="80" rx="12" fill="#fff"/>
    <path d="M 26,14 L 54,14 L 54,66 L 40,54 L 26,66 Z" fill="#1a3d2f"/>
    <path d="M 26,14 L 54,14 L 54,40 L 26,40 Z" fill="#c8732e" opacity="0.3"/>
    <rect x="30" y="24" width="20" height="3" rx="1.5" fill="#fff" opacity="0.5"/>
    <rect x="30" y="32" width="14" height="3" rx="1.5" fill="#fff" opacity="0.3"/>
  </g>

  <!-- 9: Settings / gear (simplified) -->
  <g transform="translate(280,210)">
    <rect width="80" height="80" rx="12" fill="#fff"/>
    <!-- Gear: center circle + outer teeth as small rects rotated -->
    <circle cx="40" cy="40" r="11" fill="#1a3d2f"/>
    <circle cx="40" cy="40" r="6" fill="#fff"/>
    <circle cx="40" cy="40" r="6" fill="#c8732e" opacity="0.5"/>
    <!-- Teeth: 8 positions -->
    <g fill="#1a3d2f">
      <rect x="36" y="16" width="8" height="12" rx="3"/>
      <rect x="36" y="52" width="8" height="12" rx="3"/>
      <rect x="16" y="36" width="12" height="8" rx="3"/>
      <rect x="52" y="36" width="12" height="8" rx="3"/>
      <rect transform="rotate(45,40,40)" x="36" y="16" width="8" height="12" rx="3"/>
      <rect transform="rotate(45,40,40)" x="36" y="52" width="8" height="12" rx="3"/>
      <rect transform="rotate(45,40,40)" x="16" y="36" width="12" height="8" rx="3"/>
      <rect transform="rotate(45,40,40)" x="52" y="36" width="12" height="8" rx="3"/>
    </g>
  </g>

  <!-- 10: Mail -->
  <g transform="translate(390,210)">
    <rect width="80" height="80" rx="12" fill="#fff"/>
    <rect x="12" y="24" width="56" height="38" rx="5" fill="#1a3d2f" opacity="0.12"/>
    <rect x="12" y="24" width="56" height="38" rx="5" fill="none" stroke="#1a3d2f" stroke-width="4"/>
    <polyline points="12,28 40,48 68,28" fill="none" stroke="#1a3d2f" stroke-width="4" stroke-linejoin="round"/>
    <polyline points="12,28 40,48 68,28" fill="none" stroke="#c8732e" stroke-width="2.5" opacity="0.6"/>
  </g>

  <!-- 11: Location pin -->
  <g transform="translate(500,210)">
    <rect width="80" height="80" rx="12" fill="#fff"/>
    <path d="M 40,14 Q 58,14 58,34 Q 58,50 40,68 Q 22,50 22,34 Q 22,14 40,14 Z" fill="#1a3d2f"/>
    <path d="M 40,14 Q 58,14 58,34 Q 58,44 50,54" fill="#c8732e" opacity="0.25"/>
    <circle cx="40" cy="34" r="9" fill="#fff"/>
    <circle cx="40" cy="34" r="5" fill="#c8732e"/>
  </g>

  <!-- 12: Phone -->
  <g transform="translate(610,210)">
    <rect width="80" height="80" rx="12" fill="#fff"/>
    <rect x="22" y="12" width="36" height="58" rx="7" fill="#1a3d2f"/>
    <rect x="26" y="18" width="28" height="42" rx="3" fill="#fff" opacity="0.15"/>
    <rect x="30" y="22" width="20" height="30" rx="2" fill="#c8732e" opacity="0.25"/>
    <circle cx="40" cy="64" r="3" fill="#e8dcc8" opacity="0.6"/>
    <rect x="34" y="15" width="12" height="3" rx="1.5" fill="#e8dcc8" opacity="0.3"/>
  </g>

  <!-- Row 3 -->
  <!-- 13: Bar chart -->
  <g transform="translate(60,320)">
    <rect width="80" height="80" rx="12" fill="#fff"/>
    <rect x="14" y="42" width="12" height="24" rx="3" fill="#1a3d2f" opacity="0.4"/>
    <rect x="30" y="28" width="12" height="38" rx="3" fill="#1a3d2f" opacity="0.7"/>
    <rect x="46" y="18" width="12" height="48" rx="3" fill="#1a3d2f"/>
    <rect x="62" y="34" width="12" height="32" rx="3" fill="#c8732e"/>
    <line x1="12" y1="68" x2="76" y2="68" stroke="#1a3d2f" stroke-width="2" opacity="0.3"/>
  </g>

  <!-- 14: Calendar -->
  <g transform="translate(170,320)">
    <rect width="80" height="80" rx="12" fill="#fff"/>
    <rect x="14" y="20" width="52" height="46" rx="5" fill="#1a3d2f" opacity="0.08"/>
    <rect x="14" y="20" width="52" height="46" rx="5" fill="none" stroke="#1a3d2f" stroke-width="4"/>
    <rect x="14" y="20" width="52" height="16" rx="5" fill="#1a3d2f"/>
    <rect x="14" y="30" width="52" height="6" fill="#1a3d2f"/>
    <rect x="24" y="14" width="4" height="12" rx="2" fill="#c8732e"/>
    <rect x="52" y="14" width="4" height="12" rx="2" fill="#c8732e"/>
    <!-- Day dots -->
    <circle cx="26" cy="52" r="3" fill="#1a3d2f" opacity="0.4"/>
    <circle cx="40" cy="52" r="3" fill="#1a3d2f" opacity="0.4"/>
    <circle cx="54" cy="52" r="3" fill="#c8732e"/>
    <circle cx="26" cy="62" r="3" fill="#1a3d2f" opacity="0.3"/>
    <circle cx="40" cy="62" r="3" fill="#1a3d2f" opacity="0.3"/>
  </g>

  <!-- 15: Arrow right -->
  <g transform="translate(280,320)">
    <rect width="80" height="80" rx="12" fill="#fff"/>
    <circle cx="40" cy="40" r="22" fill="#1a3d2f" opacity="0.08"/>
    <circle cx="40" cy="40" r="22" fill="#c8732e" opacity="0.12"/>
    <polyline points="32,28 52,40 32,52" fill="none" stroke="#1a3d2f" stroke-width="5" stroke-linecap="round" stroke-linejoin="round"/>
    <line x1="20" y1="40" x2="50" y2="40" stroke="#1a3d2f" stroke-width="5" stroke-linecap="round"/>
  </g>

  <!-- 16: Layers -->
  <g transform="translate(390,320)">
    <rect width="80" height="80" rx="12" fill="#fff"/>
    <polygon points="40,16 66,30 40,44 14,30" fill="#c8732e" opacity="0.35"/>
    <polygon points="40,27 66,41 40,55 14,41" fill="#1a3d2f" opacity="0.5"/>
    <polygon points="40,38 66,52 40,66 14,52" fill="#1a3d2f"/>
    <polygon points="40,38 66,52 40,66 14,52" fill="#c8732e" opacity="0.2"/>
  </g>

  <!-- 17: Grid -->
  <g transform="translate(500,320)">
    <rect width="80" height="80" rx="12" fill="#fff"/>
    <rect x="14" y="14" width="22" height="22" rx="4" fill="#1a3d2f"/>
    <rect x="44" y="14" width="22" height="22" rx="4" fill="#1a3d2f" opacity="0.5"/>
    <rect x="14" y="44" width="22" height="22" rx="4" fill="#1a3d2f" opacity="0.5"/>
    <rect x="44" y="44" width="22" height="22" rx="4" fill="#c8732e"/>
  </g>

  <!-- 18: Download -->
  <g transform="translate(610,320)">
    <rect width="80" height="80" rx="12" fill="#fff"/>
    <line x1="40" y1="14" x2="40" y2="50" stroke="#1a3d2f" stroke-width="5" stroke-linecap="round"/>
    <polyline points="24,38 40,54 56,38" fill="none" stroke="#1a3d2f" stroke-width="5" stroke-linecap="round" stroke-linejoin="round"/>
    <rect x="14" y="58" width="52" height="8" rx="4" fill="#c8732e"/>
  </g>

  <!-- Row 4 -->
  <!-- 19: Upload -->
  <g transform="translate(60,430)">
    <rect width="80" height="80" rx="12" fill="#fff"/>
    <line x1="40" y1="54" x2="40" y2="18" stroke="#1a3d2f" stroke-width="5" stroke-linecap="round"/>
    <polyline points="24,30 40,14 56,30" fill="none" stroke="#1a3d2f" stroke-width="5" stroke-linecap="round" stroke-linejoin="round"/>
    <rect x="14" y="58" width="52" height="8" rx="4" fill="#1a3d2f" opacity="0.2"/>
  </g>

  <!-- 20: Share -->
  <g transform="translate(170,430)">
    <rect width="80" height="80" rx="12" fill="#fff"/>
    <circle cx="58" cy="24" r="9" fill="#1a3d2f"/>
    <circle cx="22" cy="40" r="9" fill="#1a3d2f" opacity="0.6"/>
    <circle cx="58" cy="56" r="9" fill="#c8732e"/>
    <line x1="30" y1="36" x2="50" y2="28" stroke="#1a3d2f" stroke-width="3" opacity="0.6"/>
    <line x1="30" y1="44" x2="50" y2="52" stroke="#c8732e" stroke-width="3" opacity="0.7"/>
  </g>

  <!-- 21: Lock -->
  <g transform="translate(280,430)">
    <rect width="80" height="80" rx="12" fill="#fff"/>
    <rect x="18" y="38" width="44" height="30" rx="6" fill="#1a3d2f"/>
    <path d="M 26,38 Q 26,18 40,18 Q 54,18 54,38" fill="none" stroke="#1a3d2f" stroke-width="6"/>
    <circle cx="40" cy="54" r="6" fill="#c8732e"/>
    <rect x="37" y="54" width="6" height="10" rx="2" fill="#c8732e"/>
  </g>

  <!-- 22: Edit / pen -->
  <g transform="translate(390,430)">
    <rect width="80" height="80" rx="12" fill="#fff"/>
    <path d="M 52,14 Q 60,14 62,22 L 34,56 L 20,60 L 24,46 Z" fill="#1a3d2f"/>
    <path d="M 52,14 Q 60,14 62,22 L 46,38 L 38,30 Z" fill="#c8732e" opacity="0.6"/>
    <line x1="20" y1="66" x2="64" y2="66" stroke="#1a3d2f" stroke-width="3" stroke-linecap="round" opacity="0.3"/>
  </g>

  <!-- 23: Image / photo -->
  <g transform="translate(500,430)">
    <rect width="80" height="80" rx="12" fill="#fff"/>
    <rect x="12" y="18" width="56" height="44" rx="5" fill="none" stroke="#1a3d2f" stroke-width="4"/>
    <circle cx="28" cy="30" r="7" fill="#c8732e" opacity="0.6"/>
    <polygon points="12,62 30,38 44,52 56,40 68,62" fill="#1a3d2f" opacity="0.3"/>
    <polygon points="12,62 30,38 44,52 56,40 68,62" fill="#1a3d2f" opacity="0.5"/>
  </g>

  <!-- 24: Palette -->
  <g transform="translate(610,430)">
    <rect width="80" height="80" rx="12" fill="#fff"/>
    <circle cx="40" cy="40" r="24" fill="none" stroke="#1a3d2f" stroke-width="4"/>
    <circle cx="40" cy="40" r="24" fill="#1a3d2f" opacity="0.06"/>
    <circle cx="40" cy="18" r="6" fill="#1a3d2f"/>
    <circle cx="62" cy="30" r="6" fill="#c8732e"/>
    <circle cx="62" cy="50" r="6" fill="#2d5a44"/>
    <circle cx="40" cy="62" r="6" fill="#e8dcc8" stroke="#ccc" stroke-width="1"/>
    <circle cx="18" cy="50" r="6" fill="#c8732e" opacity="0.5"/>
    <circle cx="18" cy="30" r="6" fill="#1a3d2f" opacity="0.5"/>
    <circle cx="40" cy="40" r="8" fill="#fff"/>
    <circle cx="40" cy="40" r="5" fill="#1a3d2f" opacity="0.15"/>
  </g>

  <!-- Footer bar -->
  <rect y="528" width="800" height="72" fill="#1a3d2f" opacity="0.04"/>
  <line x1="0" y1="528" x2="800" y2="528" stroke="#ddd" stroke-width="1"/>
  <text x="400" y="556" text-anchor="middle" font-family="system-ui,sans-serif" font-size="11" fill="#aaa" letter-spacing="2">SVG · PNG · 16px · 24px · 32px · 48px · 64px · DUOTONE + OUTLINE + FILLED VARIANTS</text>
  <text x="400" y="578" text-anchor="middle" font-family="system-ui,sans-serif" font-weight="600" font-size="11" fill="#1a3d2f" opacity="0.5" letter-spacing="2">240 ICONS ACROSS 20 CATEGORIES</text>
</svg>
